<svg width="35" height="34" viewBox="0 0 35 34" fill="none" xmlns="http://www.w3.org/2000/svg">
<path d="M9.74223 30.4446H6.08888C5.7659 30.4446 5.45615 30.3163 5.22777 30.0879C4.9994 29.8595 4.87109 29.5498 4.87109 29.2268C4.87109 28.9038 4.9994 28.5941 5.22777 28.3658C5.45615 28.1373 5.7659 28.0091 6.08888 28.0091H8.80453L9.74223 25.1838C9.85219 24.8831 10.0761 24.6379 10.3656 24.5012C10.6551 24.3645 10.9867 24.3472 11.2888 24.4531C11.5933 24.5559 11.8447 24.7749 11.9884 25.0623C12.1321 25.3497 12.1565 25.6822 12.056 25.9875L10.8382 29.6409C10.7562 29.8686 10.608 30.0666 10.4127 30.2098C10.2175 30.3531 9.98408 30.4348 9.74223 30.4446Z" fill="white"/>
<path d="M4.87111 31.6625C4.38941 31.6625 3.91851 31.5196 3.51799 31.2521C3.11746 30.9844 2.80529 30.6041 2.62094 30.159C2.43661 29.714 2.38837 29.2242 2.48235 28.7518C2.57632 28.2793 2.80829 27.8453 3.14891 27.5047C3.48953 27.1641 3.92351 26.9321 4.39596 26.8382C4.86841 26.7442 5.35813 26.7924 5.80317 26.9768C6.24821 27.1612 6.62859 27.4733 6.89621 27.8738C7.16384 28.2743 7.30668 28.7453 7.30668 29.2269C7.30668 29.8729 7.05008 30.4924 6.59332 30.9492C6.13656 31.4059 5.51706 31.6625 4.87111 31.6625Z" fill="white"/>
<path d="M8.52447 6.08905C8.36334 6.08838 8.20396 6.05575 8.05553 5.99304C7.90712 5.93033 7.77262 5.83878 7.65984 5.72372L5.58961 3.65348H3.65333C3.33035 3.65348 3.02061 3.52518 2.79222 3.29681C2.56385 3.06842 2.43555 2.75868 2.43555 2.4357C2.43555 2.11272 2.56385 1.80298 2.79222 1.57459C3.02061 1.34622 3.33035 1.21792 3.65333 1.21792H6.0889C6.24917 1.21699 6.40804 1.2477 6.55642 1.30831C6.70478 1.36891 6.83974 1.45821 6.95353 1.57107L9.38909 4.00664C9.56084 4.17697 9.67796 4.39459 9.72554 4.63175C9.77306 4.86892 9.74895 5.11487 9.65624 5.33826C9.56348 5.56167 9.4063 5.75237 9.20473 5.88608C9.00316 6.0198 8.76634 6.09046 8.52447 6.08905Z" fill="white"/>
<path d="M2.43557 4.87113C1.95386 4.87113 1.48297 4.7283 1.08244 4.46067C0.681909 4.19305 0.369743 3.81266 0.185395 3.36762C0.00105875 2.92258 -0.0471777 2.43287 0.0467986 1.96041C0.140775 1.48796 0.372738 1.05399 0.713365 0.713364C1.05398 0.37275 1.48796 0.140775 1.96041 0.0467983C2.43286 -0.0471781 2.92258 0.0010581 3.36762 0.185406C3.81266 0.369742 4.19305 0.681921 4.46067 1.08244C4.72829 1.48297 4.87113 1.95386 4.87113 2.43558C4.87113 3.08153 4.61453 3.70103 4.15777 4.15778C3.70101 4.61453 3.08152 4.87113 2.43557 4.87113Z" fill="white"/>
<path d="M24.2949 4.87111H26.7305L27.9483 2.43555H30.3838" fill="white"/>
<path d="M26.791 6.08903H24.3555C24.0325 6.08903 23.7227 5.96074 23.4944 5.73235C23.266 5.50397 23.1377 5.19423 23.1377 4.87125C23.1377 4.54828 23.266 4.23852 23.4944 4.01015C23.7227 3.78177 24.0325 3.65346 24.3555 3.65346H26.036L26.925 1.88768C27.0262 1.68685 27.181 1.51797 27.3723 1.39975C27.5636 1.28152 27.7839 1.21858 28.0088 1.2179H30.4444C30.7674 1.2179 31.0772 1.3462 31.3055 1.57458C31.5338 1.80296 31.6622 2.11271 31.6622 2.43568C31.6622 2.75866 31.5338 3.0684 31.3055 3.29679C31.0772 3.52517 30.7674 3.65346 30.4444 3.65346H28.703L27.8262 5.40707C27.7304 5.603 27.5839 5.76965 27.4019 5.88962C27.2198 6.00957 27.0088 6.07845 26.791 6.08903Z" fill="white"/>
<path d="M31.7237 5.07817C31.2419 5.07817 30.771 4.93532 30.3705 4.6677C29.9701 4.40008 29.6578 4.0197 29.4735 3.57466C29.2892 3.12961 29.2409 2.6399 29.3349 2.16745C29.4289 1.69499 29.6609 1.26101 30.0015 0.920399C30.3421 0.579772 30.776 0.347809 31.2485 0.253833C31.721 0.159856 32.2107 0.208081 32.6558 0.392429C33.1008 0.576765 33.4812 0.888943 33.7487 1.28947C34.0164 1.69 34.1593 2.16089 34.1593 2.6426C34.1593 3.28855 33.9027 3.90805 33.4459 4.3648C32.9891 4.82157 32.3696 5.07817 31.7237 5.07817Z" fill="white"/>
<path d="M31.9912 26.6452L27.1201 21.774L25.5735 19.7769C25.4657 19.6471 25.3321 19.541 25.1811 19.4655C25.0302 19.39 24.8652 19.3468 24.6967 19.3385C24.5292 19.3293 24.3615 19.3549 24.2045 19.4135C24.0472 19.4722 23.9039 19.5628 23.7833 19.6795L19.923 23.5033C19.8079 23.6161 19.7164 23.7505 19.6537 23.899C19.591 24.0474 19.5584 24.2068 19.5576 24.3679C19.5568 24.5282 19.5875 24.687 19.648 24.8354C19.7086 24.9838 19.7979 25.1187 19.9108 25.2325L26.6451 32.0034C27.3297 32.6887 28.2582 33.0742 29.2268 33.0751C30.1955 33.0742 31.124 32.6887 31.8085 32.0034L32.0156 31.7964C32.6928 31.1086 33.0704 30.1809 33.0658 29.2157C33.0613 28.2506 32.6749 27.3264 31.9912 26.6452Z" fill="#C7A253"/>
<path d="M16.9874 28.0091C24.3856 28.0091 30.383 22.0117 30.383 14.6135C30.383 7.21532 24.3856 1.2179 16.9874 1.2179C9.58922 1.2179 3.5918 7.21532 3.5918 14.6135C3.5918 22.0117 9.58922 28.0091 16.9874 28.0091Z" fill="#C7A253"/>
<path d="M9.74223 30.5418H6.08888C5.7659 30.5418 5.45615 30.4136 5.22777 30.1851C4.9994 29.9568 4.87109 29.647 4.87109 29.324C4.87109 29.0011 4.9994 28.6913 5.22777 28.463C5.45615 28.2346 5.7659 28.1063 6.08888 28.1063H8.86542L9.80312 25.281C9.90651 24.9742 10.1275 24.7209 10.4175 24.5771C10.5612 24.5059 10.7174 24.4636 10.8773 24.4528C11.0372 24.4418 11.1977 24.4627 11.3497 24.5138C11.5017 24.5649 11.642 24.6456 11.7628 24.751C11.8836 24.8564 11.9823 24.9846 12.0536 25.1282C12.1248 25.2719 12.1671 25.4281 12.1779 25.588C12.1889 25.7479 12.1681 25.9085 12.1169 26.0604L10.8991 29.7137C10.8174 29.9556 10.6618 30.1657 10.4541 30.3144C10.2466 30.4629 9.99748 30.5424 9.74223 30.5418Z" fill="white"/>
<path d="M4.87111 31.7598C4.38941 31.7598 3.91851 31.6169 3.51799 31.3493C3.11746 31.0817 2.80529 30.7013 2.62094 30.2563C2.43661 29.8112 2.38837 29.3215 2.48235 28.849C2.57632 28.3767 2.80829 27.9426 3.14891 27.602C3.48953 27.2614 3.92351 27.0294 4.39596 26.9354C4.86841 26.8415 5.35813 26.8898 5.80317 27.074C6.24821 27.2584 6.62859 27.5706 6.89621 27.9711C7.16384 28.3717 7.30668 28.8425 7.30668 29.3242C7.30668 29.9701 7.05008 30.5896 6.59332 31.0464C6.13656 31.5032 5.51706 31.7598 4.87111 31.7598Z" fill="white"/>
<path d="M8.52447 6.18634C8.36419 6.18727 8.20532 6.15654 8.05695 6.09594C7.90858 6.03534 7.77363 5.94605 7.65984 5.83318L5.58961 3.75077H3.65333C3.33035 3.75077 3.02061 3.62247 2.79222 3.39408C2.56385 3.16571 2.43555 2.85596 2.43555 2.53299C2.43555 2.21001 2.56385 1.90027 2.79222 1.67188C3.02061 1.4435 3.33035 1.31521 3.65333 1.31521H6.0889C6.24917 1.31428 6.40804 1.34499 6.55642 1.4056C6.70478 1.4662 6.83974 1.5555 6.95353 1.66836L9.38909 4.10393C9.50324 4.21714 9.59383 4.35182 9.65565 4.50022C9.71748 4.64862 9.74931 4.80779 9.74931 4.96856C9.74931 5.12932 9.71748 5.28848 9.65565 5.43688C9.59383 5.58528 9.50324 5.71997 9.38909 5.83318C9.2753 5.94605 9.14035 6.03534 8.99199 6.09594C8.84361 6.15654 8.68474 6.18727 8.52447 6.18634Z" fill="white"/>
<path d="M2.43557 4.96842C1.95386 4.96842 1.48297 4.82558 1.08244 4.55796C0.681909 4.29034 0.369743 3.90995 0.185395 3.46491C0.00105875 3.01987 -0.0471777 2.53015 0.0467986 2.0577C0.140775 1.58525 0.372738 1.15127 0.713365 0.810655C1.05398 0.470028 1.48796 0.238065 1.96041 0.144089C2.43286 0.0501123 2.92258 0.0983488 3.36762 0.282685C3.81266 0.467033 4.19305 0.779199 4.46067 1.17973C4.72829 1.58026 4.87113 2.05115 4.87113 2.53286C4.87113 3.17881 4.61453 3.7983 4.15777 4.25506C3.70101 4.71182 3.08152 4.96842 2.43557 4.96842Z" fill="white"/>
<path d="M31.9908 26.645L27.8381 22.4314C29.5143 20.1678 30.4269 17.4298 30.4442 14.6133C30.4571 11.7394 29.5497 8.93693 27.8548 6.61607C26.1598 4.29523 23.7663 2.57799 21.0249 1.7158C18.2834 0.853612 15.3378 0.891765 12.6196 1.82467C9.90137 2.75757 7.55317 4.53621 5.91888 6.90016C4.2846 9.26415 3.45007 12.0892 3.53748 14.9618C3.62489 17.8343 4.62965 20.6034 6.40464 22.8636C8.17963 25.1238 10.6316 26.7564 13.4015 27.5223C16.1715 28.2882 19.1139 28.1472 21.7979 27.1199L26.669 31.991C27.0094 32.3318 27.4138 32.602 27.8589 32.7859C28.3042 32.9698 28.7813 33.0639 29.2629 33.0627C29.7445 33.0639 30.2217 32.9698 30.6668 32.7859C31.112 32.602 31.5164 32.3318 31.8568 31.991L32.0638 31.784C32.7309 31.0905 33.0975 30.1617 33.0837 29.1995C33.0701 28.2372 32.6773 27.3193 31.9908 26.645ZM6.08846 14.6133C6.08846 12.4456 6.73126 10.3265 7.93557 8.52418C9.13987 6.72181 10.8516 5.31703 12.8543 4.48749C14.857 3.65795 17.0607 3.4409 19.1867 3.8638C21.3127 4.28669 23.2657 5.33054 24.7984 6.86333C26.3312 8.39613 27.3751 10.3491 27.7979 12.4751C28.2209 14.6011 28.0038 16.8048 27.1743 18.8074C26.3447 20.8102 24.9399 22.5219 23.1376 23.7262C21.3353 24.9306 19.2162 25.5733 17.0485 25.5733C14.1417 25.5733 11.3539 24.4186 9.29858 22.3632C7.24318 20.3077 6.08846 17.52 6.08846 14.6133ZM30.2493 30.0669L30.0301 30.2861C29.9163 30.399 29.7813 30.4883 29.633 30.5489C29.4846 30.6095 29.3258 30.6403 29.1655 30.6393C29.0052 30.6403 28.8463 30.6095 28.698 30.5489C28.5495 30.4883 28.4146 30.399 28.3009 30.2861L24.0386 25.9752C24.8254 25.4877 25.56 24.9205 26.2306 24.2825L30.2493 28.362C30.4724 28.5896 30.5974 28.8957 30.5974 29.2145C30.5974 29.5332 30.4724 29.8393 30.2493 30.0669Z" fill="white"/>
</svg>
