<svg width="17" height="17" viewBox="0 0 17 17" fill="none" xmlns="http://www.w3.org/2000/svg">
<path d="M2.16966 3.83334H2.14619C1.89067 3.84875 1.63472 3.81132 1.39432 3.72338C1.15392 3.63544 0.934233 3.49887 0.748975 3.32222C0.563717 3.14557 0.416869 2.93262 0.317601 2.69667C0.218333 2.46072 0.168776 2.20684 0.172025 1.95088C0.175274 1.69491 0.23126 1.44237 0.336486 1.20902C0.441712 0.975664 0.593918 0.766511 0.7836 0.594618C0.973283 0.422725 1.19637 0.291784 1.43892 0.209972C1.68148 0.128161 1.9383 0.0972355 2.19334 0.119127C2.44965 0.100565 2.70702 0.135231 2.94929 0.220948C3.19155 0.306664 3.41346 0.441575 3.60106 0.6172C3.78866 0.792824 3.93789 1.00536 4.03938 1.24145C4.14087 1.47754 4.19242 1.73207 4.19078 1.98905C4.18914 2.24602 4.13435 2.49988 4.02986 2.73465C3.92537 2.96943 3.77344 3.18005 3.58361 3.35326C3.39379 3.52648 3.17018 3.65855 2.92684 3.74117C2.68351 3.82379 2.42571 3.85517 2.16966 3.83334Z" fill="#DDDDDF"/>
<path d="M3.84896 6.33301H0.515625V16.333H3.84896V6.33301Z" fill="#DDDDDF"/>
<path d="M12.5977 6.33301C12.036 6.33454 11.4819 6.46302 10.9768 6.70883C10.4717 6.95464 10.0288 7.31143 9.68099 7.75253V6.33301H6.34766V16.333H9.68099V11.7497C9.68099 11.3076 9.85658 10.8837 10.1691 10.5712C10.4817 10.2586 10.9056 10.083 11.3477 10.083C11.7897 10.083 12.2136 10.2586 12.5262 10.5712C12.8387 10.8837 13.0143 11.3076 13.0143 11.7497V16.333H16.3477V10.083C16.3477 9.59055 16.2507 9.10292 16.0622 8.64794C15.8737 8.19297 15.5975 7.77958 15.2493 7.43136C14.9011 7.08314 14.4877 6.80691 14.0327 6.61846C13.5777 6.43 13.0901 6.33301 12.5977 6.33301Z" fill="#DDDDDF"/>
</svg>
