<svg width="17" height="17" viewBox="0 0 17 17" fill="none" xmlns="http://www.w3.org/2000/svg">
<path d="M2.17161 3.83334H2.14814C1.89263 3.84875 1.63668 3.81132 1.39628 3.72338C1.15587 3.63544 0.936186 3.49887 0.750928 3.32222C0.565671 3.14557 0.418823 2.93262 0.319554 2.69667C0.220286 2.46072 0.170729 2.20684 0.173978 1.95088C0.177227 1.69491 0.233213 1.44237 0.338439 1.20902C0.443665 0.975664 0.595871 0.766511 0.785554 0.594618C0.975236 0.422725 1.19832 0.291784 1.44088 0.209972C1.68343 0.128161 1.94025 0.0972355 2.19529 0.119127C2.4516 0.100565 2.70898 0.135231 2.95124 0.220948C3.1935 0.306664 3.41541 0.441575 3.60301 0.6172C3.79061 0.792824 3.93985 1.00536 4.04134 1.24145C4.14282 1.47754 4.19437 1.73207 4.19273 1.98905C4.19109 2.24602 4.13631 2.49988 4.03181 2.73465C3.92732 2.96943 3.77539 3.18005 3.58556 3.35326C3.39574 3.52648 3.17213 3.65855 2.92879 3.74117C2.68546 3.82379 2.42766 3.85517 2.17161 3.83334Z" fill="#DDDDDF"/>
<path d="M3.85091 6.33301H0.517578V16.333H3.85091V6.33301Z" fill="#DDDDDF"/>
<path d="M12.5996 6.33301C12.0379 6.33454 11.4838 6.46302 10.9787 6.70883C10.4737 6.95464 10.0307 7.31143 9.68294 7.75253V6.33301H6.34961V16.333H9.68294V11.7497C9.68294 11.3076 9.85854 10.8837 10.1711 10.5712C10.4837 10.2586 10.9076 10.083 11.3496 10.083C11.7916 10.083 12.2156 10.2586 12.5281 10.5712C12.8407 10.8837 13.0163 11.3076 13.0163 11.7497V16.333H16.3496V10.083C16.3496 9.59055 16.2526 9.10292 16.0642 8.64794C15.8757 8.19297 15.5995 7.77958 15.2513 7.43136C14.903 7.08314 14.4896 6.80691 14.0347 6.61846C13.5797 6.43 13.0921 6.33301 12.5996 6.33301Z" fill="#DDDDDF"/>
</svg>
