<svg width="40" height="40" viewBox="0 0 40 40" fill="none" xmlns="http://www.w3.org/2000/svg">
<path fill-rule="evenodd" clip-rule="evenodd" d="M16.8488 37.5C16.8488 36.1193 17.9718 35 19.3569 35H37.492C38.8771 35 40 36.1193 40 37.5C40 38.8807 38.8771 40 37.492 40H19.3569C17.9718 40 16.8488 38.8807 16.8488 37.5ZM16.8488 28.3333C16.8488 26.9527 17.9718 25.8333 19.3569 25.8333H37.492C38.8771 25.8333 40 26.9527 40 28.3333C40 29.714 38.8771 30.8333 37.492 30.8333H19.3569C17.9718 30.8333 16.8488 29.714 16.8488 28.3333ZM16.8488 19.1667C16.8488 17.786 17.9718 16.6667 19.3569 16.6667H37.492C38.8771 16.6667 40 17.786 40 19.1667C40 20.5473 38.8771 21.6667 37.492 21.6667H19.3569C17.9718 21.6667 16.8488 20.5473 16.8488 19.1667ZM30.0964 11.6667H16.7202C13.9499 11.6667 11.7042 13.9052 11.7042 16.6667V30H5.01607C2.24578 30 0 27.7615 0 25V5C0 2.23858 2.24578 0 5.01607 0H25.0804C27.8507 0 30.0964 2.23858 30.0964 5V11.6667Z" fill="white"/>
</svg>
