<svg width="36" height="33" viewBox="0 0 36 33" fill="none" xmlns="http://www.w3.org/2000/svg">
<path d="M9.19336 3.77233V19.9506C9.19336 21.1712 10.1864 22.1643 11.4071 22.1643H14.6588L17.0523 26.31C17.2476 26.6483 17.6087 26.8568 17.9993 26.8568C18.39 26.8568 18.751 26.6483 18.9463 26.31L21.3399 22.1643H24.5916C25.8123 22.1643 26.8053 21.1712 26.8053 19.9506V3.77233C26.8053 2.55165 25.8123 1.55859 24.5916 1.55859H11.4071C10.1864 1.55859 9.19336 2.55165 9.19336 3.77233ZM17.9992 4.60527C19.7176 4.60527 21.1156 6.00328 21.1156 7.72174C21.1156 9.4402 19.7176 10.8382 17.9992 10.8382C16.2808 10.8382 14.8828 9.4402 14.8828 7.72174C14.8828 6.00328 16.2808 4.60527 17.9992 4.60527ZM17.9992 12.0761C21.3015 12.0761 23.9881 14.7628 23.9881 18.065C23.9881 18.669 23.4985 19.1586 22.8945 19.1586H13.1038C12.4999 19.1586 12.0102 18.669 12.0102 18.065C12.0102 14.7628 14.6969 12.0761 17.9992 12.0761Z" fill="white"/>
<path d="M31.1551 30.7041H4.84357C4.23961 30.7041 3.75 31.1937 3.75 31.7977C3.75 32.4016 4.23961 32.8912 4.84357 32.8912H31.1551C31.7591 32.8912 32.2487 32.4016 32.2487 31.7977C32.2487 31.1936 31.7591 30.7041 31.1551 30.7041Z" fill="white"/>
<path d="M5.99685 17.0187C6.19214 17.3571 6.55322 17.5655 6.9438 17.5655C7.1804 17.5655 7.40587 17.4888 7.59042 17.3533C7.68297 17.2853 7.7361 17.1759 7.7361 17.061V3.77214C7.7361 1.74424 9.38003 0.100311 11.4079 0.100311H11.9285C11.7408 0.0355748 11.5396 0 11.3302 0H2.55757C1.54203 0 0.71875 0.823216 0.71875 1.83882V12.6039C0.71875 13.6195 1.54203 14.4427 2.55757 14.4427H4.50986L5.99685 17.0187Z" fill="white"/>
<path d="M33.4429 0H24.6702C24.4609 0 24.2599 0.0355748 24.0723 0.100311H24.5933C26.6212 0.100311 28.2652 1.74424 28.2652 3.77214V17.0617C28.2652 17.1766 28.3184 17.2862 28.411 17.3542C28.5953 17.4892 28.8205 17.5656 29.0567 17.5656C29.4474 17.5656 29.8084 17.3572 30.0038 17.0188L31.4908 14.4428H33.4431C34.4587 14.4428 35.2819 13.6196 35.2819 12.604V1.83882C35.2818 0.823216 34.4585 0 33.4429 0Z" fill="white"/>
</svg>
