<svg width="36" height="22" viewBox="0 0 36 22" fill="none" xmlns="http://www.w3.org/2000/svg">
<path d="M33.0159 20.0745C32.6858 20.0743 32.3594 20.0047 32.0578 19.8704C31.9877 19.8392 31.9208 19.8012 31.8581 19.7569L25.7625 15.4662C25.4534 15.2486 25.2011 14.9598 25.0269 14.6243C24.8528 14.2888 24.7618 13.9163 24.7617 13.5382V7.68663C24.7618 7.30858 24.8528 6.9361 25.0269 6.60057C25.2011 6.26504 25.4534 5.9763 25.7625 5.75869L31.8581 1.468C31.9208 1.42366 31.9877 1.38565 32.0578 1.3545C32.4169 1.19487 32.8101 1.12748 33.2019 1.15847C33.5936 1.18945 33.9713 1.31783 34.3008 1.53193C34.6303 1.74603 34.9011 2.03906 35.0886 2.38442C35.276 2.72977 35.3742 3.11648 35.3742 3.50943V17.7154C35.3742 18.3409 35.1258 18.9408 34.6835 19.383C34.2412 19.8253 33.6414 20.0738 33.0159 20.0738V20.0745Z" fill="white"/>
<path d="M18.5719 21.225H5.01146C3.68276 21.2236 2.40887 20.6952 1.46933 19.7557C0.529796 18.8161 0.00136567 17.5422 0 16.2135V5.01146C0.00136567 3.68276 0.529796 2.40887 1.46933 1.46933C2.40887 0.529796 3.68276 0.00136567 5.01146 0H18.6073C19.9265 0.00156033 21.1913 0.526326 22.1241 1.45918C23.057 2.39204 23.5818 3.65682 23.5833 4.97608V16.2135C23.582 17.5422 23.0535 18.8161 22.114 19.7557C21.1745 20.6952 19.9006 21.2236 18.5719 21.225Z" fill="white"/>
</svg>
