<svg width="33" height="33" viewBox="0 0 33 33" fill="none" xmlns="http://www.w3.org/2000/svg">
<path d="M31.6251 11H22V1.37498C22 0.61598 21.3854 0 20.625 0H13.75V12.375C13.75 13.134 13.1354 13.75 12.375 13.75H0V20.625C0 21.384 0.614626 22 1.37498 22H11V31.625C11 32.384 11.6146 33 12.375 33H31.625C32.3854 33 33 32.384 33 31.625V12.375C33.0001 11.616 32.3854 11 31.6251 11ZM30.25 30.25H13.75V22H20.625C21.3854 22 22 21.384 22 20.625V13.75H30.25V30.25Z" fill="white"/>
<path d="M11 0H1.37498C0.614626 0 0 0.61598 0 1.37498V11H11V0Z" fill="white"/>
</svg>
