<svg width="58" height="63" viewBox="0 0 58 63" fill="none" xmlns="http://www.w3.org/2000/svg">
<rect y="0.00146484" width="57.2289" height="62.5" rx="7.53012" fill="#0A2419"/>
<path d="M12.915 27.6691V34.805C12.915 35.1836 13.0654 35.5466 13.3331 35.8142C13.6007 36.0819 13.9637 36.2322 14.3422 36.2322H27.187V39.3721C26.7689 39.5408 26.3892 39.792 26.0704 40.1108C25.7516 40.4296 25.5003 40.8094 25.3317 41.2274H16.6258C16.2472 41.2274 15.8842 41.3778 15.6166 41.6455C15.3489 41.9131 15.1986 42.2761 15.1986 42.6546C15.1986 43.0331 15.3489 43.3962 15.6166 43.6638C15.8842 43.9315 16.2472 44.0818 16.6258 44.0818H25.3317C25.6058 44.7255 26.0632 45.2743 26.6468 45.66C27.2305 46.0458 27.9146 46.2515 28.6142 46.2515C29.3138 46.2515 29.998 46.0458 30.5816 45.66C31.1652 45.2743 31.6226 44.7255 31.8968 44.0818H40.7454C41.1239 44.0818 41.4869 43.9315 41.7546 43.6638C42.0222 43.3962 42.1726 43.0331 42.1726 42.6546C42.1726 42.2761 42.0222 41.9131 41.7546 41.6455C41.4869 41.3778 41.1239 41.2274 40.7454 41.2274H31.8968C31.5305 40.3998 30.8691 39.7383 30.0414 39.3721V36.2322H42.8862C43.2647 36.2322 43.6277 36.0819 43.8954 35.8142C44.163 35.5466 44.3134 35.1836 44.3134 34.805V27.6691H12.915ZM34.323 31.9506C34.0407 31.9506 33.7648 31.8669 33.5301 31.7101C33.2954 31.5533 33.1125 31.3304 33.0045 31.0696C32.8964 30.8088 32.8682 30.5219 32.9232 30.245C32.9783 29.9682 33.1142 29.7139 33.3138 29.5143C33.5134 29.3147 33.7677 29.1787 34.0446 29.1237C34.3214 29.0686 34.6084 29.0969 34.8692 29.2049C35.13 29.3129 35.3529 29.4958 35.5097 29.7305C35.6665 29.9652 35.7502 30.2412 35.7502 30.5234C35.7502 30.902 35.5998 31.265 35.3322 31.5326C35.0645 31.8003 34.7015 31.9506 34.323 31.9506ZM38.6046 31.9506C38.3223 31.9506 38.0464 31.8669 37.8117 31.7101C37.577 31.5533 37.3941 31.3304 37.286 31.0696C37.178 30.8088 37.1498 30.5219 37.2048 30.245C37.2599 29.9682 37.3958 29.7139 37.5954 29.5143C37.795 29.3147 38.0493 29.1787 38.3262 29.1237C38.603 29.0686 38.89 29.0969 39.1508 29.2049C39.4116 29.3129 39.6345 29.4958 39.7913 29.7305C39.9481 29.9652 40.0318 30.2412 40.0318 30.5234C40.0318 30.902 39.8814 31.265 39.6138 31.5326C39.3461 31.8003 38.9831 31.9506 38.6046 31.9506ZM42.8862 16.2515H14.3422C13.9637 16.2515 13.6007 16.4018 13.3331 16.6695C13.0654 16.9371 12.915 17.3001 12.915 17.6787V24.8147H44.3134V17.6787C44.3134 17.3001 44.163 16.9371 43.8954 16.6695C43.6277 16.4018 43.2647 16.2515 42.8862 16.2515ZM34.323 23.3875C34.0407 23.3875 33.7648 23.3038 33.5301 23.1469C33.2954 22.9901 33.1125 22.7672 33.0045 22.5064C32.8964 22.2456 32.8682 21.9587 32.9232 21.6818C32.9783 21.405 33.1142 21.1507 33.3138 20.9511C33.5134 20.7515 33.7677 20.6156 34.0446 20.5605C34.3214 20.5054 34.6084 20.5337 34.8692 20.6417C35.13 20.7497 35.3529 20.9326 35.5097 21.1673C35.6665 21.4021 35.7502 21.678 35.7502 21.9603C35.7502 22.3388 35.5998 22.7018 35.3322 22.9694C35.0645 23.2371 34.7015 23.3875 34.323 23.3875ZM38.6046 23.3875C38.3223 23.3875 38.0464 23.3038 37.8117 23.1469C37.577 22.9901 37.3941 22.7672 37.286 22.5064C37.178 22.2456 37.1498 21.9587 37.2048 21.6818C37.2599 21.405 37.3958 21.1507 37.5954 20.9511C37.795 20.7515 38.0493 20.6156 38.3262 20.5605C38.603 20.5054 38.89 20.5337 39.1508 20.6417C39.4116 20.7497 39.6345 20.9326 39.7913 21.1673C39.9481 21.4021 40.0318 21.678 40.0318 21.9603C40.0318 22.3388 39.8814 22.7018 39.6138 22.9694C39.3461 23.2371 38.9831 23.3875 38.6046 23.3875Z" fill="white"/>
</svg>
