<svg width="20" height="20" viewBox="0 0 20 20" fill="none" xmlns="http://www.w3.org/2000/svg">
<path d="M10.0013 5.83366C9.17721 5.83366 8.37163 6.07803 7.68643 6.53587C7.00122 6.99371 6.46717 7.64445 6.1518 8.40581C5.83644 9.16717 5.75392 10.0049 5.9147 10.8132C6.07547 11.6215 6.4723 12.3639 7.05502 12.9466C7.63774 13.5293 8.38017 13.9262 9.18842 14.0869C9.99668 14.2477 10.8345 14.1652 11.5958 13.8498C12.3572 13.5345 13.0079 13.0004 13.4658 12.3152C13.9236 11.63 14.168 10.8244 14.168 10.0003C14.168 8.89526 13.729 7.83545 12.9476 7.05405C12.1662 6.27264 11.1064 5.83366 10.0013 5.83366ZM10.0013 12.5003C9.50685 12.5003 9.0235 12.3537 8.61238 12.079C8.20125 11.8043 7.88082 11.4138 7.6916 10.957C7.50238 10.5002 7.45287 9.99755 7.54934 9.5126C7.6458 9.02765 7.8839 8.58219 8.23353 8.23256C8.58317 7.88293 9.02862 7.64482 9.51358 7.54836C9.99853 7.4519 10.5012 7.50141 10.958 7.69063C11.4148 7.87984 11.8053 8.20028 12.08 8.6114C12.3547 9.02252 12.5013 9.50587 12.5013 10.0003C12.5013 10.6634 12.2379 11.2993 11.7691 11.7681C11.3002 12.2369 10.6643 12.5003 10.0013 12.5003ZM14.168 5.00032C14.0031 5.00032 13.842 5.0492 13.705 5.14077C13.568 5.23233 13.4611 5.36248 13.3981 5.51476C13.335 5.66703 13.3185 5.83458 13.3506 5.99623C13.3828 6.15788 13.4622 6.30637 13.5787 6.42291C13.6953 6.53946 13.8437 6.61882 14.0054 6.65098C14.167 6.68313 14.3346 6.66663 14.4869 6.60356C14.6391 6.54048 14.7693 6.43367 14.8609 6.29663C14.9524 6.15959 15.0013 5.99848 15.0013 5.83366C15.0013 5.61264 14.9135 5.40068 14.7572 5.2444C14.6009 5.08812 14.389 5.00032 14.168 5.00032ZM18.2846 6.86699C18.2708 6.15484 18.1355 5.45028 17.8846 4.78366C17.652 4.17705 17.2943 3.62615 16.8349 3.16674C16.3755 2.70733 15.8246 2.34967 15.218 2.11699C14.5513 1.86607 13.8468 1.7308 13.1346 1.71699C12.3263 1.66699 12.0596 1.66699 10.0013 1.66699C7.94297 1.66699 7.6763 1.66699 6.86797 1.71699C6.15582 1.7308 5.45126 1.86607 4.78463 2.11699C4.17802 2.34967 3.62713 2.70733 3.16772 3.16674C2.70831 3.62615 2.35065 4.17705 2.11797 4.78366C1.86705 5.45028 1.73178 6.15484 1.71797 6.86699C1.66797 7.68366 1.66797 7.95032 1.66797 10.0003C1.66797 12.0503 1.66797 12.317 1.71797 13.1337C1.73178 13.8458 1.86705 14.5504 2.11797 15.217C2.35065 15.8236 2.70831 16.3745 3.16772 16.8339C3.62713 17.2933 4.17802 17.651 4.78463 17.8837C5.45126 18.1346 6.15582 18.2698 6.86797 18.2837C7.7013 18.2837 7.94297 18.3337 10.0013 18.3337C12.0596 18.3337 12.3263 18.3337 13.1346 18.2837C13.8468 18.2698 14.5513 18.1346 15.218 17.8837C15.8246 17.651 16.3755 17.2933 16.8349 16.8339C17.2943 16.3745 17.652 15.8236 17.8846 15.217C18.1355 14.5504 18.2708 13.8458 18.2846 13.1337C18.2846 12.3003 18.3346 12.0503 18.3346 10.0003C18.3346 7.95032 18.3346 7.68366 18.2846 6.86699ZM16.618 13.0587C16.6034 13.5875 16.5049 14.1107 16.3263 14.6087C16.1786 15.0023 15.9452 15.3581 15.643 15.6503C15.3525 15.9527 14.996 16.1837 14.6013 16.3253C14.1021 16.5112 13.5755 16.6126 13.043 16.6253C12.2596 16.6253 12.018 16.667 9.99297 16.667C7.96797 16.667 7.73463 16.667 6.9513 16.667C6.41965 16.6533 5.8936 16.5548 5.39297 16.3753C4.99935 16.2276 4.64353 15.9942 4.3513 15.692C4.04893 15.4015 3.8179 15.045 3.6763 14.6503C3.49114 14.1538 3.38976 13.63 3.3763 13.1003C3.3763 12.267 3.3763 12.0587 3.3763 10.042C3.3763 8.02532 3.3763 7.78366 3.3763 6.98366C3.39067 6.45133 3.492 5.92494 3.6763 5.42533C3.8201 5.03419 4.05091 4.68084 4.3513 4.39199C4.64178 4.08962 4.99831 3.85859 5.39297 3.71699C5.89213 3.53107 6.41879 3.42968 6.9513 3.41699C7.73463 3.33366 7.9763 3.33366 10.0013 3.33366C12.0263 3.33366 12.268 3.33366 13.0513 3.33366C13.5864 3.34727 14.1157 3.44861 14.618 3.63366C15.0091 3.77746 15.3624 4.00827 15.6513 4.30866C15.9537 4.59914 16.1847 4.95567 16.3263 5.35032C16.5303 5.85746 16.6459 6.39581 16.668 6.94199C16.668 7.77532 16.7096 7.98366 16.7096 10.0003C16.7096 12.017 16.668 12.2587 16.668 13.0587H16.618Z" fill="#DDDDDF"/>
</svg>
