<svg width="20" height="20" viewBox="0 0 20 20" fill="none" xmlns="http://www.w3.org/2000/svg">
<path d="M10.0033 5.83366C9.17917 5.83366 8.37358 6.07803 7.68838 6.53587C7.00317 6.99371 6.46912 7.64445 6.15376 8.40581C5.83839 9.16717 5.75588 10.0049 5.91665 10.8132C6.07742 11.6215 6.47426 12.3639 7.05698 12.9466C7.63969 13.5293 8.38212 13.9262 9.19038 14.0869C9.99863 14.2477 10.8364 14.1652 11.5978 13.8498C12.3591 13.5345 13.0099 13.0004 13.4677 12.3152C13.9255 11.63 14.1699 10.8244 14.1699 10.0003C14.1699 8.89526 13.7309 7.83545 12.9495 7.05405C12.1681 6.27264 11.1083 5.83366 10.0033 5.83366ZM10.0033 12.5003C9.5088 12.5003 9.02545 12.3537 8.61433 12.079C8.20321 11.8043 7.88277 11.4138 7.69356 10.957C7.50434 10.5002 7.45483 9.99755 7.55129 9.5126C7.64775 9.02765 7.88586 8.58219 8.23549 8.23256C8.58512 7.88293 9.03058 7.64482 9.51553 7.54836C10.0005 7.4519 10.5031 7.50141 10.96 7.69063C11.4168 7.87984 11.8072 8.20028 12.0819 8.6114C12.3566 9.02252 12.5033 9.50587 12.5033 10.0003C12.5033 10.6634 12.2399 11.2993 11.771 11.7681C11.3022 12.2369 10.6663 12.5003 10.0033 12.5003ZM14.1699 5.00032C14.0051 5.00032 13.844 5.0492 13.7069 5.14077C13.5699 5.23233 13.4631 5.36248 13.4 5.51476C13.3369 5.66703 13.3204 5.83458 13.3526 5.99623C13.3848 6.15788 13.4641 6.30637 13.5807 6.42291C13.6972 6.53946 13.8457 6.61882 14.0073 6.65098C14.169 6.68313 14.3366 6.66663 14.4888 6.60356C14.6411 6.54048 14.7712 6.43367 14.8628 6.29663C14.9544 6.15959 15.0033 5.99848 15.0033 5.83366C15.0033 5.61264 14.9155 5.40068 14.7592 5.2444C14.6029 5.08812 14.3909 5.00032 14.1699 5.00032ZM18.2866 6.86699C18.2728 6.15484 18.1375 5.45028 17.8866 4.78366C17.6539 4.17705 17.2962 3.62615 16.8368 3.16674C16.3774 2.70733 15.8265 2.34967 15.2199 2.11699C14.5533 1.86607 13.8487 1.7308 13.1366 1.71699C12.3283 1.66699 12.0616 1.66699 10.0033 1.66699C7.94492 1.66699 7.67825 1.66699 6.86992 1.71699C6.15777 1.7308 5.45321 1.86607 4.78659 2.11699C4.17998 2.34967 3.62908 2.70733 3.16967 3.16674C2.71026 3.62615 2.3526 4.17705 2.11992 4.78366C1.869 5.45028 1.73373 6.15484 1.71992 6.86699C1.66992 7.68366 1.66992 7.95032 1.66992 10.0003C1.66992 12.0503 1.66992 12.317 1.71992 13.1337C1.73373 13.8458 1.869 14.5504 2.11992 15.217C2.3526 15.8236 2.71026 16.3745 3.16967 16.8339C3.62908 17.2933 4.17998 17.651 4.78659 17.8837C5.45321 18.1346 6.15777 18.2698 6.86992 18.2837C7.70325 18.2837 7.94492 18.3337 10.0033 18.3337C12.0616 18.3337 12.3283 18.3337 13.1366 18.2837C13.8487 18.2698 14.5533 18.1346 15.2199 17.8837C15.8265 17.651 16.3774 17.2933 16.8368 16.8339C17.2962 16.3745 17.6539 15.8236 17.8866 15.217C18.1375 14.5504 18.2728 13.8458 18.2866 13.1337C18.2866 12.3003 18.3366 12.0503 18.3366 10.0003C18.3366 7.95032 18.3366 7.68366 18.2866 6.86699ZM16.6199 13.0587C16.6053 13.5875 16.5069 14.1107 16.3283 14.6087C16.1806 15.0023 15.9472 15.3581 15.6449 15.6503C15.3544 15.9527 14.9979 16.1837 14.6033 16.3253C14.1041 16.5112 13.5774 16.6126 13.0449 16.6253C12.2616 16.6253 12.0199 16.667 9.99492 16.667C7.96992 16.667 7.73659 16.667 6.95325 16.667C6.4216 16.6533 5.89555 16.5548 5.39492 16.3753C5.0013 16.2276 4.64548 15.9942 4.35325 15.692C4.05088 15.4015 3.81985 15.045 3.67825 14.6503C3.49309 14.1538 3.39171 13.63 3.37826 13.1003C3.37826 12.267 3.37826 12.0587 3.37826 10.042C3.37826 8.02532 3.37826 7.78366 3.37826 6.98366C3.39262 6.45133 3.49396 5.92494 3.67825 5.42533C3.82205 5.03419 4.05287 4.68084 4.35325 4.39199C4.64373 4.08962 5.00026 3.85859 5.39492 3.71699C5.89408 3.53107 6.42075 3.42968 6.95325 3.41699C7.73659 3.33366 7.97825 3.33366 10.0033 3.33366C12.0283 3.33366 12.2699 3.33366 13.0533 3.33366C13.5884 3.34727 14.1176 3.44861 14.6199 3.63366C15.0111 3.77746 15.3644 4.00827 15.6533 4.30866C15.9556 4.59914 16.1867 4.95567 16.3283 5.35032C16.5323 5.85746 16.6478 6.39581 16.6699 6.94199C16.6699 7.77532 16.7116 7.98366 16.7116 10.0003C16.7116 12.017 16.6699 12.2587 16.6699 13.0587H16.6199Z" fill="#DDDDDF"/>
</svg>
