<svg width="301" height="291" viewBox="0 0 301 291" fill="none" xmlns="http://www.w3.org/2000/svg">
<mask id="mask0_63_865" style="mask-type:alpha" maskUnits="userSpaceOnUse" x="0" y="0" width="301" height="291">
<path d="M0.188125 12.7925C0.188125 5.83131 5.8313 0.188125 12.7925 0.188125H288.207C295.169 0.188125 300.812 5.8313 300.812 12.7925V277.672C300.812 284.634 295.189 290.277 288.229 290.277H288.114H288H287.884H287.769H287.653H287.536H287.42H287.302H287.185H287.066H286.948H286.829H286.71H286.59H286.47H286.349H286.228H286.107H285.985H285.862H285.74H285.617H285.493H285.369H285.245H285.121H284.996H284.87H284.744H284.618H284.491H284.364H284.237H284.109H283.981H283.852H283.723H283.594H283.464H283.334H283.204H283.073H282.941H282.81H282.678H282.545H282.412H282.279H282.146H282.012H281.878H281.743H281.608H281.473H281.337H281.201H281.064H280.927H280.79H280.652H280.515H280.376H280.238H280.099H279.959H279.82H279.679H279.539H279.398H279.257H279.116H278.974H278.832H278.689H278.546H278.403H278.26H278.116H277.971H277.827H277.682H277.537H277.391H277.245H277.099H276.952H276.806H276.658H276.511H276.363H276.215H276.066H275.917H275.768H275.619H275.469H275.319H275.168H275.017H274.866H274.715H274.563H274.411H274.259H274.106H273.953H273.8H273.646H273.492H273.338H273.184H273.029H272.874H272.718H272.563H272.407H272.25H272.094H271.937H271.78H271.622H271.464H271.306H271.148H270.989H270.83H270.671H270.512H270.352H270.192H270.032H269.871H269.71H269.549H269.388H269.226H269.064H268.902H268.739H268.576H268.413H268.25H268.086H267.922H267.758H267.594H267.429H267.264H267.099H266.933H266.768H266.602H266.436H266.269H266.102H265.935H265.768H265.601H265.433H265.265H265.097H264.928H264.759H264.591H264.421H264.252H264.082H263.912H263.742H263.572H263.401H263.23H263.059H262.888H262.716H262.544H262.372H262.2H262.028H261.855H261.682H261.509H261.335H261.162H260.988H260.814H260.64H260.465H260.291H260.116H259.941H259.765H259.59H259.414H259.238H259.062H258.886H258.709H258.532H258.355H258.178H258.001H257.823H257.645H257.467H257.289H257.111H256.932H256.754H256.575H256.395H256.216H256.037H255.857H255.677H255.497H255.317H255.136H254.956H254.775H254.594H254.413H254.232H254.05H253.868H253.686H253.504H253.322H253.14H252.957H252.775H252.592H252.409H252.226H252.042H251.859H251.675H251.491H251.307H251.123H250.939H250.754H250.57H250.385H250.2H250.015H249.83H249.644H249.459H249.273H249.087H248.901H248.715H248.529H248.343H248.156H247.97H247.783H247.596H247.409H247.222H247.034H246.847H246.659H246.472H246.284H246.096H245.908H245.719H245.531H245.343H245.154H244.965H244.776H244.588H244.398H244.209H244.02H243.831H243.641H243.451H243.262H243.072H242.882H242.692H242.502H242.311H242.121H241.931H241.74H241.549H241.359H241.168H240.977H240.786H240.595H240.403H240.212H240.021H239.829H239.637H239.446H239.254H239.062H238.87H238.678H238.486H238.294H238.102H237.909H237.717H237.524H237.332H237.139H236.946H236.754H236.561H236.368H236.175H235.982H235.789H235.595H235.402H235.209H235.015H234.822H234.628H234.435H234.241H234.048H233.854H233.66H233.466H233.272H233.078H232.885H232.69H232.496H232.302H232.108H231.914H231.72H231.525H231.331H231.137H230.942H230.748H230.553H230.359H230.164H229.97H229.775H229.581H229.386H229.191H228.997H228.802H228.607H228.412H228.217H228.023H227.828H227.633H227.438H227.243H227.048H226.853H226.658H226.463H226.269H226.074H225.879H225.684H225.489H225.294H225.099H224.904H224.709H224.514H224.319H224.124H223.929H223.734H223.539H223.344H223.149H222.954H222.759H222.564H222.369H222.174H221.979H221.784H221.59H221.395H221.2H221.005H220.81H220.616H220.421H220.226H220.032H219.837H219.642H219.448H219.253H219.059H218.864H218.67H218.475H218.281H218.087H217.892H217.698H217.504H217.31H217.115H216.921H216.727H216.533H216.339H216.145H215.951H215.758H215.564H215.37H215.177H214.983H214.789H214.596H214.403H214.209H214.016H213.823H213.63H213.436H213.243H213.05H212.857H212.665H212.472H212.279H212.087H211.894H211.702H211.509H211.317H211.125H210.932H210.74H210.548H210.356H210.165H209.973H209.781H209.59H209.398H209.207H209.015H208.824H208.633H208.442H208.251H208.06H207.87H207.679H207.488H207.298H207.108H206.917H206.727H206.537H206.347H206.158H205.968H205.778H205.589H205.4H205.21H205.021H204.832H204.643H204.454H204.266H204.077H203.889H203.701H203.512H203.324H203.136H202.949H202.761H202.573H202.386H202.199H202.012H201.825H201.638H201.451H201.264H201.078H200.892H200.705H200.519H200.333H200.148H199.962H199.777H199.591H199.406H199.221H199.036C198.881 290.277 198.658 290.195 198.354 289.998C198.055 289.805 197.703 289.517 197.294 289.143C196.478 288.396 195.46 287.326 194.236 286.034L194.095 285.885C191.668 283.321 188.464 279.939 184.489 276.556C176.385 269.658 165.055 262.745 150.5 262.745C135.947 262.745 123.96 269.656 115.433 276.553C111.168 280.002 107.764 283.45 105.335 286.034C104.705 286.703 104.145 287.31 103.652 287.845C103.188 288.348 102.784 288.786 102.436 289.152C102.079 289.528 101.79 289.819 101.57 290.015C101.459 290.113 101.37 290.183 101.301 290.228C101.235 290.27 101.208 290.276 101.208 290.277C101.208 290.277 101.209 290.277 101.209 290.277H101.034H100.856H100.678H100.5H100.321H100.143H99.9642H99.7854H99.6063H99.4271H99.2477H99.0681H98.8884H98.7084H98.5283H98.3481H98.1676H97.987H97.8063H97.6253H97.4442H97.263H97.0816H96.9H96.7182H96.5363H96.3543H96.1721H95.9897H95.8072H95.6245H95.4417H95.2587H95.0756H94.8924H94.709H94.5254H94.3417H94.1579H93.9739H93.7898H93.6055H93.4211H93.2366H93.0519H92.8671H92.6822H92.4972H92.312H92.1266H91.9412H91.7556H91.5699H91.3841H91.1982H91.0121H90.8259H90.6396H90.4532H90.2666H90.08H89.8932H89.7063H89.5193H89.3322H89.145H88.9577H88.7703H88.5827H88.3951H88.2074H88.0195H87.8316H87.6435H87.4554H87.2672H87.0788H86.8904H86.7019H86.5133H86.3245H86.1357H85.9469H85.7579H85.5688H85.3797H85.1905H85.0011H84.8118H84.6223H84.4327H84.2431H84.0534H83.8636H83.6738H83.4838H83.2938H83.1038H82.9136H82.7234H82.5331H82.3428H82.1524H81.9619H81.7714H81.5808H81.3901H81.1994H81.0087H80.8178H80.627H80.436H80.245H80.054H79.8629H79.6718H79.4806H79.2894H79.0981H78.9068H78.7154H78.524H78.3326H78.1411H77.9496H77.758H77.5664H77.3748H77.1832H76.9915H76.7998H76.608H76.4162H76.2244H76.0326H75.8407H75.6489H75.457H75.265H75.0731H74.8811H74.6892H74.4972H74.3052H74.1131H73.9211H73.7291H73.537H73.3449H73.1529H72.9608H72.7687H72.5766H72.3845H72.1924H72.0004H71.8083H71.6162H71.4241H71.232H71.0399H70.8479H70.6558H70.4638H70.2717H70.0797H69.8877H69.6957H69.5037H69.3117H69.1198H68.9278H68.7359H68.544H68.3522H68.1603H67.9685H67.7767H67.5849H67.3932H67.2015H67.0098H66.8182H66.6266H66.435H66.2435H66.0519H65.8605H65.6691H65.4777H65.2863H65.095H64.9038H64.7126H64.5214H64.3303H64.1393H63.9482H63.7573H63.5664H63.3755H63.1847H62.994H62.8033H62.6127H62.4221H62.2316H62.0412H61.8508H61.6605H61.4702H61.28H61.0899H60.8999H60.7099H60.52H60.3302H60.1405H59.9508H59.7612H59.5717H59.3822H59.1929H59.0036H58.8144H58.6253H58.4363H58.2474H58.0585H57.8698H57.6811H57.4925H57.304H57.1157H56.9274H56.7392H56.5511H56.3631H56.1752H55.9874H55.7997H55.6121H55.4246H55.2372H55.0499H54.8628H54.6757H54.4888H54.302H54.1152H53.9286H53.7421H53.5558H53.3695H53.1834H52.9974H52.8115H52.6257H52.4401H52.2546H52.0692H51.8839H51.6988H51.5138H51.3289H51.1442H50.9596H50.7751H50.5908H50.4066H50.2225H50.0386H49.8548H49.6712H49.4877H49.3044H49.1212H48.9381H48.7552H48.5725H48.3899H48.2074H48.0251H47.843H47.661H47.4792H47.2975H47.116H46.9347H46.7535H46.5725H46.3916H46.2109H46.0304H45.85H45.6698H45.4898H45.31H45.1303H44.9508H44.7715H44.5923H44.4134H44.2346H44.056H43.8775H43.6993H43.5212H43.3433H43.1656H42.9881H42.8108H42.6337H42.4568H42.28H42.1035H41.9271H41.7509H41.575H41.3992H41.2236H41.0483H40.8731H40.6982H40.5234H40.3488H40.1745H40.0004H39.8264H39.6527H39.4792H39.3059H39.1328H38.96H38.7873H38.6149H38.4427H38.2707H38.0989H37.9274H37.7561H37.585H37.4141H37.2434H37.073H36.9028H36.7329H36.5632H36.3937H36.2244H36.0554H35.8866H35.7181H35.5498H35.3817H35.2139H35.0463H34.8789H34.7119H34.545H34.3784H34.2121H34.046H33.8801H33.7145H33.5492H33.3841H33.2193H33.0547H32.8904H32.7263H32.5626H32.399H32.2358H32.0728H31.91H31.7476H31.5854H31.4234H31.2618H31.1004H30.9393H30.7784H30.6179H30.4576H30.2976H30.1379H29.9784H29.8193H29.6604H29.5018H29.3435H29.1854H29.0277H28.8703H28.7131H28.5562H28.3996H28.2434H28.0874H27.9317H27.7763H27.6212H27.4664H27.3119H27.1577H27.0038H26.8503H26.697H26.544H26.3914H26.239H26.087H25.9352H25.7838H25.6327H25.4819H25.3315H25.1813H25.0315H24.882H24.7328H24.5839H24.4354H24.2872H24.1393H23.9917H23.8445H23.6976H23.551H23.4048H23.2589H23.1133H22.9681H22.8232H22.6786H22.5344H22.3905H22.247H22.1038H21.961H21.8185H21.6763H21.5345H21.393H21.2519H21.1112H20.9708H20.8307H20.6911H20.5517H20.4128H20.2741H20.1359H19.998H19.8605H19.7233H19.5865H19.4501H19.314H19.1783H19.043H18.908H18.7734H18.6392H18.5054H18.3719H18.2388H18.1061H17.9738H17.8419H17.7103H17.5791H17.4484H17.3179H17.1879H17.0583H16.9291H16.8002H16.6718H16.5437H16.416H16.2887H16.1619H16.0354H15.9093H15.7836H15.6583H15.5335H15.409H15.2849H15.1613H15.038H14.9152H14.7927H14.6707H14.5491H14.4279H14.3071H14.1868H14.0668H13.9473H13.8282H13.7095H13.5912H13.4734H13.356H13.239H13.1224H13.0063H12.8906H12.7753C5.81441 290.277 0.188125 284.634 0.188125 277.672V12.7925Z" fill="#C7A253" stroke="#0A2316" stroke-width="0.37625"/>
</mask>
<g mask="url(#mask0_63_865)">
<path d="M0.188125 12.7925C0.188125 5.83131 5.8313 0.188125 12.7925 0.188125H288.207C295.169 0.188125 300.812 5.8313 300.812 12.7925V277.672C300.812 284.634 295.189 290.277 288.229 290.277H288.114H288H287.884H287.769H287.653H287.536H287.42H287.302H287.185H287.066H286.948H286.829H286.71H286.59H286.47H286.349H286.228H286.107H285.985H285.862H285.74H285.617H285.493H285.369H285.245H285.121H284.996H284.87H284.744H284.618H284.491H284.364H284.237H284.109H283.981H283.852H283.723H283.594H283.464H283.334H283.204H283.073H282.941H282.81H282.678H282.545H282.412H282.279H282.146H282.012H281.878H281.743H281.608H281.473H281.337H281.201H281.064H280.927H280.79H280.652H280.515H280.376H280.238H280.099H279.959H279.82H279.679H279.539H279.398H279.257H279.116H278.974H278.832H278.689H278.546H278.403H278.26H278.116H277.971H277.827H277.682H277.537H277.391H277.245H277.099H276.952H276.806H276.658H276.511H276.363H276.215H276.066H275.917H275.768H275.619H275.469H275.319H275.168H275.017H274.866H274.715H274.563H274.411H274.259H274.106H273.953H273.8H273.646H273.492H273.338H273.184H273.029H272.874H272.718H272.563H272.407H272.25H272.094H271.937H271.78H271.622H271.464H271.306H271.148H270.989H270.83H270.671H270.512H270.352H270.192H270.032H269.871H269.71H269.549H269.388H269.226H269.064H268.902H268.739H268.576H268.413H268.25H268.086H267.922H267.758H267.594H267.429H267.264H267.099H266.933H266.768H266.602H266.436H266.269H266.102H265.935H265.768H265.601H265.433H265.265H265.097H264.928H264.759H264.591H264.421H264.252H264.082H263.912H263.742H263.572H263.401H263.23H263.059H262.888H262.716H262.544H262.372H262.2H262.028H261.855H261.682H261.509H261.335H261.162H260.988H260.814H260.64H260.465H260.291H260.116H259.941H259.765H259.59H259.414H259.238H259.062H258.886H258.709H258.532H258.355H258.178H258.001H257.823H257.645H257.467H257.289H257.111H256.932H256.754H256.575H256.395H256.216H256.037H255.857H255.677H255.497H255.317H255.136H254.956H254.775H254.594H254.413H254.232H254.05H253.868H253.686H253.504H253.322H253.14H252.957H252.775H252.592H252.409H252.226H252.042H251.859H251.675H251.491H251.307H251.123H250.939H250.754H250.57H250.385H250.2H250.015H249.83H249.644H249.459H249.273H249.087H248.901H248.715H248.529H248.343H248.156H247.97H247.783H247.596H247.409H247.222H247.034H246.847H246.659H246.472H246.284H246.096H245.908H245.719H245.531H245.343H245.154H244.965H244.776H244.588H244.398H244.209H244.02H243.831H243.641H243.451H243.262H243.072H242.882H242.692H242.502H242.311H242.121H241.931H241.74H241.549H241.359H241.168H240.977H240.786H240.595H240.403H240.212H240.021H239.829H239.637H239.446H239.254H239.062H238.87H238.678H238.486H238.294H238.102H237.909H237.717H237.524H237.332H237.139H236.946H236.754H236.561H236.368H236.175H235.982H235.789H235.595H235.402H235.209H235.015H234.822H234.628H234.435H234.241H234.048H233.854H233.66H233.466H233.272H233.078H232.885H232.69H232.496H232.302H232.108H231.914H231.72H231.525H231.331H231.137H230.942H230.748H230.553H230.359H230.164H229.97H229.775H229.581H229.386H229.191H228.997H228.802H228.607H228.412H228.217H228.023H227.828H227.633H227.438H227.243H227.048H226.853H226.658H226.463H226.269H226.074H225.879H225.684H225.489H225.294H225.099H224.904H224.709H224.514H224.319H224.124H223.929H223.734H223.539H223.344H223.149H222.954H222.759H222.564H222.369H222.174H221.979H221.784H221.59H221.395H221.2H221.005H220.81H220.616H220.421H220.226H220.032H219.837H219.642H219.448H219.253H219.059H218.864H218.67H218.475H218.281H218.087H217.892H217.698H217.504H217.31H217.115H216.921H216.727H216.533H216.339H216.145H215.951H215.758H215.564H215.37H215.177H214.983H214.789H214.596H214.403H214.209H214.016H213.823H213.63H213.436H213.243H213.05H212.857H212.665H212.472H212.279H212.087H211.894H211.702H211.509H211.317H211.125H210.932H210.74H210.548H210.356H210.165H209.973H209.781H209.59H209.398H209.207H209.015H208.824H208.633H208.442H208.251H208.06H207.87H207.679H207.488H207.298H207.108H206.917H206.727H206.537H206.347H206.158H205.968H205.778H205.589H205.4H205.21H205.021H204.832H204.643H204.454H204.266H204.077H203.889H203.701H203.512H203.324H203.136H202.949H202.761H202.573H202.386H202.199H202.012H201.825H201.638H201.451H201.264H201.078H200.892H200.705H200.519H200.333H200.148H199.962H199.777H199.591H199.406H199.221H199.036C198.881 290.277 198.658 290.195 198.354 289.998C198.055 289.805 197.703 289.517 197.294 289.143C196.478 288.396 195.46 287.326 194.236 286.034L194.095 285.885C191.668 283.321 188.464 279.939 184.489 276.556C176.385 269.658 165.055 262.745 150.5 262.745C135.947 262.745 123.96 269.656 115.433 276.553C111.168 280.002 107.764 283.45 105.335 286.034C104.705 286.703 104.145 287.31 103.652 287.845C103.188 288.348 102.784 288.786 102.436 289.152C102.079 289.528 101.79 289.819 101.57 290.015C101.459 290.113 101.37 290.183 101.301 290.228C101.235 290.27 101.208 290.276 101.208 290.277C101.208 290.277 101.209 290.277 101.209 290.277H101.034H100.856H100.678H100.5H100.321H100.143H99.9642H99.7854H99.6063H99.4271H99.2477H99.0681H98.8884H98.7084H98.5283H98.3481H98.1676H97.987H97.8063H97.6253H97.4442H97.263H97.0816H96.9H96.7182H96.5363H96.3543H96.1721H95.9897H95.8072H95.6245H95.4417H95.2587H95.0756H94.8924H94.709H94.5254H94.3417H94.1579H93.9739H93.7898H93.6055H93.4211H93.2366H93.0519H92.8671H92.6822H92.4972H92.312H92.1266H91.9412H91.7556H91.5699H91.3841H91.1982H91.0121H90.8259H90.6396H90.4532H90.2666H90.08H89.8932H89.7063H89.5193H89.3322H89.145H88.9577H88.7703H88.5827H88.3951H88.2074H88.0195H87.8316H87.6435H87.4554H87.2672H87.0788H86.8904H86.7019H86.5133H86.3245H86.1357H85.9469H85.7579H85.5688H85.3797H85.1905H85.0011H84.8118H84.6223H84.4327H84.2431H84.0534H83.8636H83.6738H83.4838H83.2938H83.1038H82.9136H82.7234H82.5331H82.3428H82.1524H81.9619H81.7714H81.5808H81.3901H81.1994H81.0087H80.8178H80.627H80.436H80.245H80.054H79.8629H79.6718H79.4806H79.2894H79.0981H78.9068H78.7154H78.524H78.3326H78.1411H77.9496H77.758H77.5664H77.3748H77.1832H76.9915H76.7998H76.608H76.4162H76.2244H76.0326H75.8407H75.6489H75.457H75.265H75.0731H74.8811H74.6892H74.4972H74.3052H74.1131H73.9211H73.7291H73.537H73.3449H73.1529H72.9608H72.7687H72.5766H72.3845H72.1924H72.0004H71.8083H71.6162H71.4241H71.232H71.0399H70.8479H70.6558H70.4638H70.2717H70.0797H69.8877H69.6957H69.5037H69.3117H69.1198H68.9278H68.7359H68.544H68.3522H68.1603H67.9685H67.7767H67.5849H67.3932H67.2015H67.0098H66.8182H66.6266H66.435H66.2435H66.0519H65.8605H65.6691H65.4777H65.2863H65.095H64.9038H64.7126H64.5214H64.3303H64.1393H63.9482H63.7573H63.5664H63.3755H63.1847H62.994H62.8033H62.6127H62.4221H62.2316H62.0412H61.8508H61.6605H61.4702H61.28H61.0899H60.8999H60.7099H60.52H60.3302H60.1405H59.9508H59.7612H59.5717H59.3822H59.1929H59.0036H58.8144H58.6253H58.4363H58.2474H58.0585H57.8698H57.6811H57.4925H57.304H57.1157H56.9274H56.7392H56.5511H56.3631H56.1752H55.9874H55.7997H55.6121H55.4246H55.2372H55.0499H54.8628H54.6757H54.4888H54.302H54.1152H53.9286H53.7421H53.5558H53.3695H53.1834H52.9974H52.8115H52.6257H52.4401H52.2546H52.0692H51.8839H51.6988H51.5138H51.3289H51.1442H50.9596H50.7751H50.5908H50.4066H50.2225H50.0386H49.8548H49.6712H49.4877H49.3044H49.1212H48.9381H48.7552H48.5725H48.3899H48.2074H48.0251H47.843H47.661H47.4792H47.2975H47.116H46.9347H46.7535H46.5725H46.3916H46.2109H46.0304H45.85H45.6698H45.4898H45.31H45.1303H44.9508H44.7715H44.5923H44.4134H44.2346H44.056H43.8775H43.6993H43.5212H43.3433H43.1656H42.9881H42.8108H42.6337H42.4568H42.28H42.1035H41.9271H41.7509H41.575H41.3992H41.2236H41.0483H40.8731H40.6982H40.5234H40.3488H40.1745H40.0004H39.8264H39.6527H39.4792H39.3059H39.1328H38.96H38.7873H38.6149H38.4427H38.2707H38.0989H37.9274H37.7561H37.585H37.4141H37.2434H37.073H36.9028H36.7329H36.5632H36.3937H36.2244H36.0554H35.8866H35.7181H35.5498H35.3817H35.2139H35.0463H34.8789H34.7119H34.545H34.3784H34.2121H34.046H33.8801H33.7145H33.5492H33.3841H33.2193H33.0547H32.8904H32.7263H32.5626H32.399H32.2358H32.0728H31.91H31.7476H31.5854H31.4234H31.2618H31.1004H30.9393H30.7784H30.6179H30.4576H30.2976H30.1379H29.9784H29.8193H29.6604H29.5018H29.3435H29.1854H29.0277H28.8703H28.7131H28.5562H28.3996H28.2434H28.0874H27.9317H27.7763H27.6212H27.4664H27.3119H27.1577H27.0038H26.8503H26.697H26.544H26.3914H26.239H26.087H25.9352H25.7838H25.6327H25.4819H25.3315H25.1813H25.0315H24.882H24.7328H24.5839H24.4354H24.2872H24.1393H23.9917H23.8445H23.6976H23.551H23.4048H23.2589H23.1133H22.9681H22.8232H22.6786H22.5344H22.3905H22.247H22.1038H21.961H21.8185H21.6763H21.5345H21.393H21.2519H21.1112H20.9708H20.8307H20.6911H20.5517H20.4128H20.2741H20.1359H19.998H19.8605H19.7233H19.5865H19.4501H19.314H19.1783H19.043H18.908H18.7734H18.6392H18.5054H18.3719H18.2388H18.1061H17.9738H17.8419H17.7103H17.5791H17.4484H17.3179H17.1879H17.0583H16.9291H16.8002H16.6718H16.5437H16.416H16.2887H16.1619H16.0354H15.9093H15.7836H15.6583H15.5335H15.409H15.2849H15.1613H15.038H14.9152H14.7927H14.6707H14.5491H14.4279H14.3071H14.1868H14.0668H13.9473H13.8282H13.7095H13.5912H13.4734H13.356H13.239H13.1224H13.0063H12.8906H12.7753C5.81441 290.277 0.188125 284.634 0.188125 277.672V12.7925Z" fill="#0A2419" stroke="#0A2419" stroke-width="0.37625"/>
</g>
</svg>
