<svg width="20" height="14" viewBox="0 0 20 14" fill="none" xmlns="http://www.w3.org/2000/svg">
<path fill-rule="evenodd" clip-rule="evenodd" d="M7.9904 9.58612V3.9743C9.98261 4.91173 11.5256 5.81731 13.3504 6.79364C11.8453 7.62835 9.98261 8.56492 7.9904 9.58612ZM19.093 1.18328C18.7493 0.730525 18.1636 0.378089 17.5401 0.261409C15.7072 -0.0866412 4.27294 -0.0876312 2.44111 0.261409C1.94106 0.355149 1.49579 0.581733 1.11329 0.933773C-0.49841 2.42967 0.00661931 10.4517 0.395101 11.7512C0.558461 12.3136 0.769644 12.7193 1.0356 12.9855C1.37826 13.3376 1.84742 13.58 2.38631 13.6887C3.89541 14.0008 11.67 14.1753 17.5082 13.7355C18.0461 13.6418 18.5222 13.3916 18.8977 13.0246C20.3879 11.5347 20.2863 3.06214 19.093 1.18328Z" fill="#DDDDDF"/>
</svg>
