<svg width="20" height="14" viewBox="0 0 20 14" fill="none" xmlns="http://www.w3.org/2000/svg">
<path fill-rule="evenodd" clip-rule="evenodd" d="M7.98845 9.58612V3.9743C9.98065 4.91173 11.5236 5.81731 13.3485 6.79364C11.8434 7.62835 9.98065 8.56492 7.98845 9.58612ZM19.091 1.18328C18.7474 0.730525 18.1617 0.378089 17.5381 0.261409C15.7053 -0.0866412 4.27099 -0.0876312 2.43915 0.261409C1.93911 0.355149 1.49384 0.581733 1.11133 0.933773C-0.500363 2.42967 0.00466618 10.4517 0.393148 11.7512C0.556508 12.3136 0.767691 12.7193 1.03365 12.9855C1.37631 13.3376 1.84547 13.58 2.38436 13.6887C3.89346 14.0008 11.668 14.1753 17.5062 13.7355C18.0441 13.6418 18.5202 13.3916 18.8958 13.0246C20.3859 11.5347 20.2844 3.06214 19.091 1.18328Z" fill="#DDDDDF"/>
</svg>
