<svg width="1440" height="83" viewBox="0 0 1440 83" fill="none" xmlns="http://www.w3.org/2000/svg">
<g clip-path="url(#clip0_63_1202)">
<path d="M1441 30.2399C1436.5 29.575 1401.33 27.8462 1398.28 27.7132C1356.72 25.7683 1313.72 24.854 1270.91 24.5381C1173.58 23.84 1074.81 26.6161 979.735 30.9049C884.297 35.2103 794.257 42.6409 702.687 49.0574C529.802 61.1758 316.259 69.4043 134.109 59.7794C93.0916 57.6184 53.7832 54.3603 18.6124 49.9052C15.824 49.5561 -0.996704 47.7941 -0.996704 47.2289V20H1440.55L1441 30.2399Z" fill="white"/>
<path opacity="0.54" d="M1441 37.7308C1436.5 36.8392 1401.33 34.521 1398.28 34.3427C1356.72 31.7347 1313.72 30.5088 1270.91 30.0852C1173.58 29.149 1074.81 32.8715 979.735 38.6224C884.297 44.3956 794.257 54.3593 702.687 62.9634C529.802 79.213 316.259 90.2467 134.109 77.3406C93.0916 74.4429 53.7832 70.074 18.6124 64.1002C15.824 63.6321 -0.996704 61.2693 -0.996704 60.5115V24H1440.55L1441 37.7308Z" fill="white"/>
</g>
<defs>
<clipPath id="clip0_63_1202">
<rect width="1440" height="83" fill="white" transform="matrix(-1 0 0 -1 1440 83)"/>
</clipPath>
</defs>
</svg>
