<svg width="1441" height="117" viewBox="0 0 1441 117" fill="none" xmlns="http://www.w3.org/2000/svg">
<g clip-path="url(#clip0_63_1239)">
<path opacity="0.5" d="M1441 74.8922C1432.45 78.8073 1351.56 86.8041 1344.36 87.3455C1240.87 94.8841 1133.97 90.8025 1031.3 82.5975C832.885 66.6456 655.796 20.206 450.182 12.2925C294.239 6.29496 128.308 -5.24204 -1 42.3221V117H1441V74.8922Z" fill="white"/>
<path d="M1442 94.3604C1437.5 95.8305 1402.3 99.6528 1399.24 99.9468C1357.66 104.247 1314.63 106.268 1271.79 106.967C1174.39 108.51 1075.56 102.373 980.413 92.8903C884.909 83.3713 794.806 66.9428 703.172 52.7562C530.167 25.9634 316.476 7.77071 134.2 29.0506C93.1537 33.8285 53.818 41.032 18.6228 50.8818C15.8324 51.6536 -1 55.5494 -1 56.799V117H1441.55L1442 94.3604Z" fill="white"/>
</g>
<defs>
<clipPath id="clip0_63_1239">
<rect width="1441" height="117" fill="white" transform="matrix(-1 0 0 1 1441 0)"/>
</clipPath>
</defs>
</svg>
